<svg preserveAspectRatio="none" width="100%" height="100%" overflow="visible" style="display: block;" viewBox="0 0 24 24" fill="none" xmlns="http://www.w3.org/2000/svg">
<g id="User-Id Streamline Solar-Ar">
<path id="Vector" d="M7.58579 10.4142C7.21071 10.0391 7 9.53043 7 9C7 8.46957 7.21071 7.96086 7.58579 7.58579C7.96086 7.21071 8.46957 7 9 7C9.53043 7 10.0391 7.21071 10.4142 7.58579C10.7893 7.96086 11 8.46957 11 9C11 9.53043 10.7893 10.0391 10.4142 10.4142C10.0391 10.7893 9.53043 11 9 11C8.46957 11 7.96086 10.7893 7.58579 10.4142Z" stroke="var(--stroke-0, #1D4ED8)" stroke-width="1.5"/>
<path id="Vector_2" d="M13 15C13 16.1046 13 17 9 17C5 17 5 16.1046 5 15C5 13.8954 6.79086 13 9 13C11.2091 13 13 13.8954 13 15Z" stroke="var(--stroke-0, #1D4ED8)" stroke-width="1.5"/>
<path id="Vector_3" d="M2 12C2 8.22876 2 6.34315 3.17157 5.17157C4.34315 4 6.22876 4 10 4H14C17.7712 4 19.6569 4 20.8284 5.17157C22 6.34315 22 8.22876 22 12C22 15.7712 22 17.6569 20.8284 18.8284C19.6569 20 17.7712 20 14 20H10C6.22876 20 4.34315 20 3.17157 18.8284C2 17.6569 2 15.7712 2 12Z" stroke="var(--stroke-0, #1D4ED8)" stroke-width="1.5"/>
<path id="Vector_4" d="M19 12H15" stroke="var(--stroke-0, #1D4ED8)" stroke-width="1.5" stroke-linecap="round"/>
<path id="Vector_5" d="M19 9H14" stroke="var(--stroke-0, #1D4ED8)" stroke-width="1.5" stroke-linecap="round"/>
<path id="Vector_6" d="M19 15H16" stroke="var(--stroke-0, #1D4ED8)" stroke-width="1.5" stroke-linecap="round"/>
</g>
</svg>
